<?xml version="1.0" encoding="UTF-8" standalone="no"?>
<!DOCTYPE svg PUBLIC "-//W3C//DTD SVG 1.1//EN"
 "http://www.w3.org/Graphics/SVG/1.1/DTD/svg11.dtd">
<!-- Generated by graphviz version 12.2.1 (0)
 -->
<!-- Pages: 1 -->
<svg width="335pt" height="332pt"
 viewBox="0.00 0.00 335.41 332.00" xmlns="http://www.w3.org/2000/svg" xmlns:xlink="http://www.w3.org/1999/xlink">
<g id="graph0" class="graph" transform="scale(1 1) rotate(0) translate(4 328)">
<polygon fill="white" stroke="none" points="-4,4 -4,-328 331.41,-328 331.41,4 -4,4"/>
<!-- foo.cmi -->
<g id="node1" class="node">
<title>foo.cmi</title>
<ellipse fill="none" stroke="black" cx="93.42" cy="-90" rx="47.53" ry="18"/>
<text text-anchor="middle" x="93.42" y="-85.33" font-family="Times,serif" font-size="14.00">foo.cmi</text>
</g>
<!-- foo.mli -->
<g id="node2" class="node">
<title>foo.mli</title>
<ellipse fill="none" stroke="black" cx="93.42" cy="-18" rx="45.42" ry="18"/>
<text text-anchor="middle" x="93.42" y="-13.32" font-family="Times,serif" font-size="14.00">foo.mli</text>
</g>
<!-- foo.cmi&#45;&gt;foo.mli -->
<g id="edge1" class="edge">
<title>foo.cmi&#45;&gt;foo.mli</title>
<path fill="none" stroke="black" d="M93.42,-71.7C93.42,-64.41 93.42,-55.73 93.42,-47.54"/>
<polygon fill="black" stroke="black" points="96.92,-47.62 93.42,-37.62 89.92,-47.62 96.92,-47.62"/>
</g>
<!-- foo.cmx -->
<g id="node3" class="node">
<title>foo.cmx</title>
<ellipse fill="none" stroke="black" cx="260.42" cy="-162" rx="50.16" ry="18"/>
<text text-anchor="middle" x="260.42" y="-157.32" font-family="Times,serif" font-size="14.00">foo.cmx</text>
</g>
<!-- foo.cmx&#45;&gt;foo.cmi -->
<g id="edge2" class="edge">
<title>foo.cmx&#45;&gt;foo.cmi</title>
<path fill="none" stroke="black" d="M228.62,-147.67C202.1,-136.55 164.12,-120.63 135.16,-108.49"/>
<polygon fill="black" stroke="black" points="136.52,-105.27 125.94,-104.63 133.81,-111.72 136.52,-105.27"/>
</g>
<!-- foo.ml -->
<g id="node4" class="node">
<title>foo.ml</title>
<ellipse fill="none" stroke="black" cx="230.42" cy="-90" rx="42.26" ry="18"/>
<text text-anchor="middle" x="230.42" y="-85.33" font-family="Times,serif" font-size="14.00">foo.ml</text>
</g>
<!-- foo.cmx&#45;&gt;foo.ml -->
<g id="edge3" class="edge">
<title>foo.cmx&#45;&gt;foo.ml</title>
<path fill="none" stroke="black" d="M253.16,-144.05C249.85,-136.32 245.83,-126.96 242.11,-118.27"/>
<polygon fill="black" stroke="black" points="245.37,-116.99 238.22,-109.18 238.94,-119.75 245.37,-116.99"/>
</g>
<!-- foo.o -->
<g id="node5" class="node">
<title>foo.o</title>
<ellipse fill="none" stroke="black" cx="35.42" cy="-162" rx="35.42" ry="18"/>
<text text-anchor="middle" x="35.42" y="-157.32" font-family="Times,serif" font-size="14.00">foo.o</text>
</g>
<!-- foo.o&#45;&gt;foo.cmi -->
<g id="edge4" class="edge">
<title>foo.o&#45;&gt;foo.cmi</title>
<path fill="none" stroke="black" d="M48.59,-145.12C55.68,-136.56 64.59,-125.8 72.6,-116.13"/>
<polygon fill="black" stroke="black" points="75.26,-118.41 78.95,-108.47 69.87,-113.94 75.26,-118.41"/>
</g>
<!-- foo.o&#45;&gt;foo.ml -->
<g id="edge5" class="edge">
<title>foo.o&#45;&gt;foo.ml</title>
<path fill="none" stroke="black" d="M62.84,-150.26C68.32,-148.15 74.05,-145.98 79.42,-144 115.76,-130.61 157.29,-116.09 187.59,-105.64"/>
<polygon fill="black" stroke="black" points="188.47,-109.04 196.78,-102.47 186.19,-102.42 188.47,-109.04"/>
</g>
<!-- hello -->
<g id="node6" class="node">
<title>hello</title>
<ellipse fill="none" stroke="black" cx="190.42" cy="-306" rx="35.42" ry="18"/>
<text text-anchor="middle" x="190.42" y="-301.32" font-family="Times,serif" font-size="14.00">hello</text>
</g>
<!-- hello&#45;&gt;foo.cmx -->
<g id="edge6" class="edge">
<title>hello&#45;&gt;foo.cmx</title>
<path fill="none" stroke="black" d="M225.28,-301.53C256.35,-296.39 300.1,-283.63 321.42,-252 330.37,-238.73 328.06,-230.56 321.42,-216 315.8,-203.66 305.72,-193.08 295.36,-184.69"/>
<polygon fill="black" stroke="black" points="297.6,-182 287.49,-178.8 293.4,-187.6 297.6,-182"/>
</g>
<!-- hello&#45;&gt;foo.o -->
<g id="edge7" class="edge">
<title>hello&#45;&gt;foo.o</title>
<path fill="none" stroke="black" d="M159.03,-297.16C133.65,-289.41 98.48,-275.27 75.42,-252 58.76,-235.18 48.37,-210.19 42.37,-190.97"/>
<polygon fill="black" stroke="black" points="45.8,-190.25 39.67,-181.61 39.07,-192.18 45.8,-190.25"/>
</g>
<!-- main.cmx -->
<g id="node7" class="node">
<title>main.cmx</title>
<ellipse fill="none" stroke="black" cx="252.42" cy="-234" rx="59.63" ry="18"/>
<text text-anchor="middle" x="252.42" y="-229.32" font-family="Times,serif" font-size="14.00">main.cmx</text>
</g>
<!-- hello&#45;&gt;main.cmx -->
<g id="edge8" class="edge">
<title>hello&#45;&gt;main.cmx</title>
<path fill="none" stroke="black" d="M204.49,-289.12C212.04,-280.59 221.53,-269.89 230.06,-260.25"/>
<polygon fill="black" stroke="black" points="232.53,-262.74 236.54,-252.93 227.29,-258.1 232.53,-262.74"/>
</g>
<!-- main.o -->
<g id="node8" class="node">
<title>main.o</title>
<ellipse fill="none" stroke="black" cx="129.42" cy="-234" rx="44.89" ry="18"/>
<text text-anchor="middle" x="129.42" y="-229.32" font-family="Times,serif" font-size="14.00">main.o</text>
</g>
<!-- hello&#45;&gt;main.o -->
<g id="edge9" class="edge">
<title>hello&#45;&gt;main.o</title>
<path fill="none" stroke="black" d="M176.58,-289.12C169.05,-280.47 159.55,-269.58 151.06,-259.83"/>
<polygon fill="black" stroke="black" points="153.84,-257.69 144.63,-252.45 148.56,-262.29 153.84,-257.69"/>
</g>
<!-- main.cmx&#45;&gt;foo.cmx -->
<g id="edge10" class="edge">
<title>main.cmx&#45;&gt;foo.cmx</title>
<path fill="none" stroke="black" d="M254.4,-215.7C255.24,-208.41 256.23,-199.73 257.16,-191.54"/>
<polygon fill="black" stroke="black" points="260.64,-191.94 258.3,-181.61 253.69,-191.15 260.64,-191.94"/>
</g>
<!-- main.ml -->
<g id="node9" class="node">
<title>main.ml</title>
<ellipse fill="none" stroke="black" cx="140.42" cy="-162" rx="51.73" ry="18"/>
<text text-anchor="middle" x="140.42" y="-157.32" font-family="Times,serif" font-size="14.00">main.ml</text>
</g>
<!-- main.cmx&#45;&gt;main.ml -->
<g id="edge11" class="edge">
<title>main.cmx&#45;&gt;main.ml</title>
<path fill="none" stroke="black" d="M227.29,-217.29C211.65,-207.52 191.35,-194.83 174.31,-184.18"/>
<polygon fill="black" stroke="black" points="176.33,-181.31 165.99,-178.98 172.62,-187.25 176.33,-181.31"/>
</g>
<!-- main.o&#45;&gt;foo.cmx -->
<g id="edge12" class="edge">
<title>main.o&#45;&gt;foo.cmx</title>
<path fill="none" stroke="black" d="M155.62,-219C175,-208.65 201.66,-194.4 223.24,-182.87"/>
<polygon fill="black" stroke="black" points="224.87,-185.97 232.04,-178.17 221.57,-179.79 224.87,-185.97"/>
</g>
<!-- main.o&#45;&gt;main.ml -->
<g id="edge13" class="edge">
<title>main.o&#45;&gt;main.ml</title>
<path fill="none" stroke="black" d="M132.14,-215.7C133.3,-208.32 134.69,-199.52 135.99,-191.25"/>
<polygon fill="black" stroke="black" points="139.41,-192.02 137.5,-181.6 132.49,-190.93 139.41,-192.02"/>
</g>
</g>
</svg>
